<svg width="28" height="34" viewBox="0 0 28 34" fill="none" xmlns="http://www.w3.org/2000/svg">
<path d="M5.66675 8.66672V5.33339C5.66677 4.36818 5.94616 3.42362 6.47119 2.6137C6.99622 1.80379 7.74445 1.16315 8.62556 0.769121C9.50667 0.375089 10.483 0.244506 11.4367 0.393135C12.3904 0.541764 13.2807 0.963251 14.0001 1.60672C14.7195 0.963251 15.6098 0.541764 16.5635 0.393135C17.5172 0.244506 18.4935 0.375089 19.3746 0.769121C20.2557 1.16315 21.0039 1.80379 21.529 2.6137C22.054 3.42362 22.3334 4.36818 22.3334 5.33339V8.66672H24.8334C25.4965 8.66672 26.1323 8.93011 26.6012 9.39895C27.07 9.86779 27.3334 10.5037 27.3334 11.1667V27.8417C27.3334 29.3866 26.7197 30.8682 25.6273 31.9606C24.5349 33.053 23.0533 33.6667 21.5084 33.6667H7.33342C5.5653 33.6667 3.86961 32.9643 2.61937 31.7141C1.36913 30.4639 0.666748 28.7682 0.666748 27.0001V11.1667C0.666748 10.5037 0.93014 9.86779 1.39898 9.39895C1.86782 8.93011 2.50371 8.66672 3.16675 8.66672H5.66675ZM16.7251 31.1667C16.0452 30.1914 15.6815 29.0306 15.6834 27.8417V11.1667H3.16675V27.0001C3.16675 27.5472 3.27452 28.089 3.48392 28.5946C3.69331 29.1001 4.00023 29.5594 4.38714 29.9463C4.77405 30.3332 5.23338 30.6402 5.7389 30.8496C6.24442 31.0589 6.78624 31.1667 7.33342 31.1667H16.7251ZM13.1667 8.66672V5.33339C13.1667 4.67035 12.9034 4.03446 12.4345 3.56562C11.9657 3.09678 11.3298 2.83339 10.6667 2.83339C10.0037 2.83339 9.36782 3.09678 8.89898 3.56562C8.43014 4.03446 8.16675 4.67035 8.16675 5.33339V8.66672H13.1667ZM15.6667 8.66672H19.8334V5.33339C19.8335 4.81878 19.6747 4.31669 19.3788 3.89566C19.0829 3.47463 18.6643 3.15517 18.1801 2.98089C17.6959 2.8066 17.1697 2.78599 16.6734 2.92186C16.177 3.05773 15.7347 3.34346 15.4067 3.74005C15.5751 4.24005 15.6667 4.77672 15.6667 5.33339V8.66672ZM18.1834 27.8417C18.1834 28.7236 18.5337 29.5693 19.1573 30.1929C19.7808 30.8164 20.6266 31.1667 21.5084 31.1667C22.3903 31.1667 23.236 30.8164 23.8595 30.1929C24.4831 29.5693 24.8334 28.7236 24.8334 27.8417V11.1667H18.1834V27.8417Z" fill="white"/>
</svg>
